Coordinates
version=1
nRows=19
nColumns=24
inDegrees=yes

Units are S.I. units (second, meters, Newtons, ...)
Angles are in degrees.

endheader
time	pelvis_tilt	pelvis_list	pelvis_rotation	pelvis_tx	pelvis_ty	pelvis_tz	hip_flexion_r	hip_adduction_r	hip_rotation_r	knee_angle_r	ankle_angle_r	subtalar_angle_r	mtp_angle_r	hip_flexion_l	hip_adduction_l	hip_rotation_l	knee_angle_l	ankle_angle_l	subtalar_angle_l	mtp_angle_l	lumbar_extension	lumbar_bending	lumbar_rotation
      1.71650000	     -1.35644966	      1.94592402	     -5.32800963	      1.31371026	      0.99785683	      0.33460234	     20.74196107	     -6.46179567	     -2.79342357	    -77.85539372	     -2.87756889	     -0.90373666	      4.66145927	     19.37462463	      2.05409550	     -7.73728974	    -22.03529902	      4.17518750	    -11.44873863	     -7.60674259	     -8.99672894	     -5.76221740	      4.26437522
      1.72066667	     -1.20035561	      1.73912852	     -4.89798749	      1.31852622	      0.99948735	      0.33340542	     21.19536013	     -6.32625427	     -3.27210320	    -77.74050246	     -2.52535885	     -0.81016616	      4.62329939	     18.72115243	      2.07343202	     -7.30403081	    -21.65821168	      4.26189255	    -11.32914201	     -7.58185633	     -9.26273443	     -5.41804610	      3.74569867
      1.72483333	     -1.14290604	      1.65624623	     -4.64214630	      1.32326545	      1.00081024	      0.33267577	     21.84644612	     -6.22928003	     -3.54060748	    -77.69307401	     -2.09496103	     -0.82916336	      4.61542016	     18.16648938	      2.12243636	     -7.13249254	    -21.26274090	      4.31729284	    -11.14583539	     -7.57268020	     -9.38836362	     -5.24934314	      3.65113381
      1.72900000	     -0.95965068	      1.44652695	     -4.20693419	      1.32807517	      1.00245367	      0.33144341	     22.24197106	     -6.12119697	     -4.04381849	    -77.47800588	     -1.75465461	     -0.70884870	      4.57898745	     17.47380417	      2.13147994	     -6.69020738	    -20.86662787	      4.44104549	    -11.02569606	     -7.54595960	     -9.67482567	     -4.89403148	      3.17708740
      1.73316667	     -0.81896872	      1.30095077	     -3.84320353	      1.33280030	      1.00394465	      0.33042117	     22.72538845	     -6.04110904	     -4.45984346	    -77.27800398	     -1.38614807	     -0.73299798	      4.53142766	     16.82391352	      2.16577577	     -6.33942483	    -20.44030696	      4.45890256	    -10.96798000	     -7.51708916	     -9.90931512	     -4.62635109	      2.82044351
      1.73733333	     -0.68442559	      1.13511957	     -3.50403172	      1.33751456	      1.00540829	      0.32947150	     23.20279333	     -5.92944948	     -4.85917315	    -77.02608727	     -1.04608552	     -0.75820528	      4.47917837	     16.18262490	      2.15712329	     -6.02721827	    -20.02955786	      4.50758810	    -10.86771508	     -7.48638634	    -10.12812891	     -4.33333184	      2.54335932
      1.74150000	     -0.53580687	      0.98481073	     -3.16307744	      1.34219207	      1.00686384	      0.32850452	     23.65653315	     -5.85005520	     -5.26613119	    -76.73334764	     -0.71606267	     -0.78008516	      4.42039786	     15.52084485	      2.16515884	     -5.69603451	    -19.59959662	      4.54141306	    -10.80012963	     -7.45468711	    -10.36355931	     -4.06155058	      2.25664741
      1.74566667	     -0.40030318	      0.83523153	     -2.86244956	      1.34687760	      1.00828594	      0.32764517	     24.11945795	     -5.75406331	     -5.64011374	    -76.39529035	     -0.39953946	     -0.83320548	      4.35304864	     14.86227420	      2.15154426	     -5.41164087	    -19.14930152	      4.56752425	    -10.74080861	     -7.42139683	    -10.57099254	     -3.79068333	      2.00558313
      1.74983333	     -0.34762612	      0.75164338	     -2.65262470	      1.35150297	      1.00945589	      0.32708001	     24.71549094	     -5.66635669	     -5.89180847	    -76.08455269	     -0.03636150	     -0.93325284	      4.32798119	     14.29720724	      2.15680574	     -5.26201513	    -18.69876267	      4.55728604	    -10.63417323	     -7.40873438	    -10.68636023	     -3.62109702	      1.91714743
      1.75400000	     -0.11797979	      0.53051744	     -2.26263152	      1.35616231	      1.01103773	      0.32601484	     24.99561959	     -5.55956971	     -6.38625318	    -75.59378613	      0.22819649	     -0.93695411	      4.24708185	     13.54208118	      2.09406660	     -4.83539810	    -18.25459781	      4.62828830	    -10.60784071	     -7.37355394	    -11.01840145	     -3.26565333	      1.56361720
      1.75816667	      0.02249990	      0.41420474	     -1.99954057	      1.36079787	      1.01235209	      0.32523476	     25.43082237	     -5.50303505	     -6.72852501	    -75.14499327	      0.49700108	     -1.02290713	      4.15283383	     12.86846124	      2.09417049	     -4.57017996	    -17.76748299	      4.60992943	    -10.63895362	     -7.33630927	    -11.22758552	     -3.02133468	      1.29717655
      1.76233333	      0.13556916	      0.26279417	     -1.73682022	      1.36540885	      1.01358269	      0.32452522	     25.87398317	     -5.40032554	     -7.07669353	    -74.64258428	      0.77498103	     -1.08141230	      4.05972401	     12.24811980	      2.03788683	     -4.32343657	    -17.33515701	      4.66083839	    -10.57473637	     -7.29944732	    -11.40682198	     -2.75565295	      1.12712043
      1.76650000	      0.27340855	      0.13722242	     -1.48337286	      1.36999414	      1.01481841	      0.32382785	     26.28129247	     -5.32776297	     -7.41013662	    -74.10447624	      1.04962214	     -1.15597937	      3.94866560	     11.58276884	      2.01049841	     -4.05451050	    -16.85700474	      4.65710032	    -10.58518716	     -7.26082444	    -11.61528522	     -2.51969930	      0.92022947
      1.77066667	      0.35982568	      0.00393272	     -1.24472536	      1.37456631	      1.01590853	      0.32319421	     26.73558676	     -5.23959428	     -7.73401927	    -73.53155405	      1.31556756	     -1.22146920	      3.84062970	     10.99727120	      1.95471900	     -3.84088901	    -16.42794518	      4.69804438	    -10.54745074	     -7.22427069	    -11.75696500	     -2.27490132	      0.76726305
      1.77483333	      0.47246870	     -0.10235974	     -1.04915531	      1.37914803	      1.01701378	      0.32264943	     27.15296274	     -5.16263770	     -8.01130126	    -72.91842719	      1.56273929	     -1.30530248	      3.72125456	     10.35796741	      1.92148924	     -3.63142114	    -15.94512849	      4.68956065	    -10.57463124	     -7.18731006	    -11.93622778	     -2.07131626	      0.61917653
      1.77900000	      0.52824987	     -0.22093773	     -0.81468346	      1.38369031	      1.01795641	      0.32203964	     27.61601354	     -5.09542648	     -8.32919015	    -72.26991666	      1.79264440	     -1.37797144	      3.59994850	      9.81388355	      1.87377055	     -3.39791795	    -15.52835852	      4.73052930	    -10.55800730	     -7.14601477	    -12.04545741	     -1.84295635	      0.47375766
      1.78316667	      0.62323664	     -0.30979275	     -0.62407566	      1.38823205	      1.01892924	      0.32154994	     28.02880364	     -5.03597605	     -8.59552732	    -71.58460520	      2.03170774	     -1.45590840	      3.44100709	      9.20415908	      1.84552262	     -3.19423019	    -15.05779037	      4.72567228	    -10.57528597	     -7.09489457	    -12.20217598	     -1.66753166	      0.32487859
      1.78733333	      0.66719861	     -0.41904647	     -0.46119792	      1.39278843	      1.01977899	      0.32114090	     28.47962006	     -4.93814531	     -8.84188418	    -70.84708483	      2.22466203	     -1.52585237	      3.32808525	      8.66286943	      1.78099037	     -3.03059322	    -14.62576962	      4.75253691	    -10.58830941	     -7.05962783	    -12.29399429	     -1.47279344	      0.26137251
      1.79150000	      0.63102766	     -0.45273765	     -0.34725253	      1.39732685	      1.02037457	      0.32087932	     29.03689374	     -4.88910118	     -9.00696704	    -70.13255429	      2.49001801	     -1.61613842	      3.29674255	      8.21784419	      1.77747783	     -2.95424576	    -14.20845270	      4.76958499	    -10.52959162	     -7.04964925	    -12.28457570	     -1.37938376	      0.22263476
